<svg xmlns="http://www.w3.org/2000/svg" version="1.1" xmlns:xlink="http://www.w3.org/1999/xlink" xmlns:svgjs="http://svgjs.com/svgjs" width="1440" height="560" preserveAspectRatio="none" viewBox="0 0 1440 560"><g mask="url(&quot;#SvgjsMask1002&quot;)" fill="none"><path d="M558.4 664.13C672.18 644.45 614.19 378.41 908.8 363.23 1203.41 348.05 1424.82 131.14 1609.6 128.03" stroke="rgba(138, 183, 231, 0.58)" stroke-width="2"></path><path d="M721.11 592.11C816.26 564.08 782.31 295.63 983.75 294.69 1185.19 293.75 1373.82 422.55 1509.03 423.49" stroke="rgba(138, 183, 231, 0.58)" stroke-width="2"></path><path d="M360.45 561.51C478.99 540.19 426 254.72 723 244.23 1020 233.74 1262.34 82.82 1448.1 81.83" stroke="rgba(138, 183, 231, 0.58)" stroke-width="2"></path><path d="M397.71 625.83C558.3 609.89 662.01 268.28 934.68 267.55 1207.35 266.82 1331 433.6 1471.65 435.55" stroke="rgba(138, 183, 231, 0.58)" stroke-width="2"></path><path d="M692.85 636.37C816.51 621.86 891.93 346.54 1097.44 345.97 1302.96 345.4 1394.56 489.38 1502.04 491.57" stroke="rgba(138, 183, 231, 0.58)" stroke-width="2"></path></g><defs><mask id="SvgjsMask1002"><rect width="1440" height="560" fill="#ffffff"></rect></mask></defs></svg>