<svg style="object-fit:cover" id="my-svg" version="1" baseProfile="full" width="100%" height="100%" viewBox="0 0 1280 891" xmlns="http://www.w3.org/2000/svg"><rect width="1280" height="891" fill="#ffffff"/><path transform="scale(1, -1)" d="M 0,891 V 0,356 C 89.70238095238093,371.3928571428571 179.40476190476187,386.7857142857143 293,358 C 406.59523809523813,329.2142857142857 544.0833333333334,256.24999999999994 649,281 C 753.9166666666666,305.75000000000006 826.2619047619048,428.21428571428567 926,457 C 1025.7380952380952,485.78571428571433 1152.8690476190477,420.89285714285717 1280,356 C 1280,356 1280,891 1280,891 Z" stroke="none" stroke-width="0" fill="#92bdd380" class="transition-all duration-300 ease-in-out delay-150" style="transform-origin: center center;"/><path transform="scale(1, -1)" d="M 0,891 V 0,534 C 127.91666666666666,516.1785714285714 255.83333333333331,498.35714285714283 360,496 C 464.1666666666667,493.64285714285717 544.5833333333334,506.7499999999999 637,539 C 729.4166666666666,571.2500000000001 833.8333333333333,622.6428571428571 943,625 C 1052.1666666666667,627.3571428571429 1166.0833333333335,580.6785714285714 1280,534 C 1280,534 1280,891 1280,891 Z" stroke="none" stroke-width="0" fill="#92bdd390" class="transition-all duration-300 ease-in-out delay-150" style="transform-origin: center center;"/><path transform="scale(1, -1)" d="M 0,891 V 0,801 C 129.5238095238095,721.6785714285714 259.047619047619,642.3571428571429 366,687 C 472.952380952381,731.6428571428571 557.3333333333334,900.25 647,904 C 736.6666666666666,907.75 831.6190476190477,746.6428571428572 938,702 C 1044.3809523809523,657.3571428571428 1162.1904761904761,729.1785714285713 1280,801 C 1280,801 1280,891 1280,891 Z" stroke="none" stroke-width="0" fill="#92bdd3ff" class="transition-all duration-300 ease-in-out delay-150" style="transform-origin: center center;"/></svg>