<svg width="110" height="102" viewBox="0 0 110 102" fill="none" xmlns="http://www.w3.org/2000/svg">
<path d="M91.0714 43.7143H83.7857V51H91.0714C93.969 51.0029 96.747 52.1552 98.7959 54.2041C100.845 56.253 101.997 59.031 102 61.9286V76.5H109.286V61.9286C109.28 57.0996 107.359 52.4701 103.944 49.0555C100.53 45.6409 95.9004 43.7201 91.0714 43.7143Z" fill="#7700CF"/>
<path d="M83.7857 7.28571C85.9472 7.28571 88.0601 7.92666 89.8573 9.12751C91.6545 10.3284 93.0552 12.0352 93.8824 14.0321C94.7095 16.029 94.926 18.2264 94.5043 20.3463C94.0826 22.4663 93.0418 24.4136 91.5134 25.942C89.985 27.4703 88.0377 28.5112 85.9178 28.9329C83.7978 29.3545 81.6005 29.1381 79.6035 28.311C77.6066 27.4838 75.8998 26.0831 74.6989 24.2859C73.4981 22.4887 72.8571 20.3758 72.8571 18.2143C72.8571 15.3158 74.0085 12.5361 76.058 10.4866C78.1075 8.43711 80.8873 7.28571 83.7857 7.28571ZM83.7857 0C80.1833 0 76.6617 1.06825 73.6664 3.06966C70.6711 5.07107 68.3365 7.91575 66.9579 11.244C65.5793 14.5722 65.2186 18.2345 65.9214 21.7677C66.6242 25.3009 68.3589 28.5464 70.9063 31.0937C73.4536 33.641 76.699 35.3758 80.2323 36.0786C83.7655 36.7814 87.4278 36.4207 90.756 35.0421C94.0842 33.6635 96.9289 31.3289 98.9303 28.3336C100.932 25.3383 102 21.8167 102 18.2143C102 13.3836 100.081 8.75068 96.6652 5.33484C93.2493 1.919 88.6164 0 83.7857 0Z" fill="#7700CF"/>
<path d="M80.1429 102H72.8571V94.7143C72.8542 91.8167 71.7019 89.0387 69.653 86.9898C67.6042 84.9409 64.8261 83.7886 61.9286 83.7857H47.3571C44.4596 83.7886 41.6815 84.9409 39.6327 86.9898C37.5838 89.0387 36.4315 91.8167 36.4286 94.7143V102H29.1429V94.7143C29.1486 89.8853 31.0695 85.2558 34.4841 81.8412C37.8987 78.4266 42.5282 76.5058 47.3571 76.5H61.9286C66.7575 76.5058 71.387 78.4266 74.8016 81.8412C78.2162 85.2558 80.1371 89.8853 80.1429 94.7143V102Z" fill="#7700CF"/>
<path d="M54.6429 40.0714C56.8043 40.0714 58.9172 40.7124 60.7144 41.9132C62.5116 43.1141 63.9124 44.8209 64.7395 46.8178C65.5667 48.8147 65.7831 51.0121 65.3614 53.1321C64.9398 55.252 63.8989 57.1993 62.3705 58.7277C60.8421 60.256 58.8949 61.2969 56.7749 61.7186C54.655 62.1403 52.4576 61.9238 50.4607 61.0967C48.4637 60.2695 46.7569 58.8688 45.5561 57.0716C44.3552 55.2744 43.7143 53.1615 43.7143 51C43.7143 48.1016 44.8657 45.3218 46.9152 43.2723C48.9647 41.2228 51.7444 40.0714 54.6429 40.0714ZM54.6429 32.7857C51.0404 32.7857 47.5189 33.854 44.5235 35.8554C41.5282 37.8568 39.1936 40.7015 37.815 44.0297C36.4365 47.3579 36.0757 51.0202 36.7785 54.5534C37.4814 58.0867 39.2161 61.3321 41.7634 63.8794C44.3107 66.4268 47.5562 68.1615 51.0894 68.8643C54.6227 69.5671 58.2849 69.2064 61.6132 67.8278C64.9414 66.4492 67.7861 64.1146 69.7875 61.1193C71.7889 58.124 72.8571 54.6024 72.8571 51C72.8571 46.1693 70.9381 41.5364 67.5223 38.1205C64.1065 34.7047 59.4736 32.7857 54.6429 32.7857Z" fill="#7700CF"/>
<path d="M25.5 43.7143H18.2143C13.3853 43.7201 8.75582 45.6409 5.34123 49.0555C1.92664 52.4701 0.00578434 57.0996 0 61.9286V76.5H7.28571V61.9286C7.28861 59.031 8.44094 56.253 10.4898 54.2041C12.5387 52.1552 15.3167 51.0029 18.2143 51H25.5V43.7143Z" fill="#7700CF"/>
<path d="M25.5 7.28571C27.6615 7.28571 29.7744 7.92666 31.5716 9.12751C33.3688 10.3284 34.7695 12.0352 35.5967 14.0321C36.4238 16.029 36.6403 18.2264 36.2186 20.3463C35.7969 22.4663 34.7561 24.4136 33.2277 25.942C31.6993 27.4703 29.752 28.5112 27.6321 28.9329C25.5121 29.3545 23.3148 29.1381 21.3178 28.311C19.3209 27.4838 17.6141 26.0831 16.4132 24.2859C15.2124 22.4887 14.5714 20.3758 14.5714 18.2143C14.5714 15.3158 15.7228 12.5361 17.7723 10.4866C19.8218 8.43711 22.6016 7.28571 25.5 7.28571ZM25.5 0C21.8976 0 18.376 1.06825 15.3807 3.06966C12.3854 5.07107 10.0508 7.91575 8.67219 11.244C7.2936 14.5722 6.93289 18.2345 7.6357 21.7677C8.3385 25.3009 10.0732 28.5464 12.6206 31.0937C15.1679 33.641 18.4133 35.3758 21.9466 36.0786C25.4798 36.7814 29.1421 36.4207 32.4703 35.0421C35.7985 33.6635 38.6432 31.3289 40.6446 28.3336C42.646 25.3383 43.7143 21.8167 43.7143 18.2143C43.7143 13.3836 41.7953 8.75068 38.3794 5.33484C34.9636 1.919 30.3307 0 25.5 0Z" fill="#7700CF"/>
</svg>
