<svg style="object-fit:cover" id="my-svg" version="1" baseProfile="full" width="100%" height="100%" viewBox="0 0 1280 891" xmlns="http://www.w3.org/2000/svg"><rect width="1280" height="891" fill="#ffffff"/><path transform="scale(1, -1)" d="M 0,891 V 0,356 L 234,248 L 438,429 L 639,344 L 860,391 L 1083,342 L 1280,356 C 1280,356 1280,891 1280,891 Z" stroke="none" stroke-width="0" fill="#bce0f080" class="transition-all duration-300 ease-in-out delay-150" style="transform-origin: center center;"/><path transform="scale(1, -1)" d="M 0,891 V 0,534 L 196,402 L 400,469 L 610,476 L 852,440 L 1031,490 L 1280,534 C 1280,534 1280,891 1280,891 Z" stroke="none" stroke-width="0" fill="#bce0f090" class="transition-all duration-300 ease-in-out delay-150" style="transform-origin: center center;"/><path transform="scale(1, -1)" d="M 0,891 V 0,801 L 240,803 L 448,762 L 654,749 L 863,779 L 1040,849 L 1280,801 C 1280,801 1280,891 1280,891 Z" stroke="none" stroke-width="0" fill="#bce0f0ff" class="transition-all duration-300 ease-in-out delay-150" style="transform-origin: center center;"/></svg>