<svg xmlns="http://www.w3.org/2000/svg" version="1.1" xmlns:xlink="http://www.w3.org/1999/xlink" xmlns:svgjs="http://svgjs.com/svgjs" width="1440" height="560" preserveAspectRatio="none" viewBox="0 0 1440 560"><g mask="url(&quot;#SvgjsMask1007&quot;)" fill="none"><path d="M -801.4428760174903,251 C -705.44,289 -513.44,438 -321.4428760174903,441 C -129.44,444 -33.44,280 158.55712398250972,266 C 350.56,252 446.56,397.6 638.5571239825097,371 C 830.56,344.4 958.27,140.8 1118.5571239825097,133 C 1278.85,125.2 1375.71,292.2 1440,332" stroke="rgba(138, 183, 231, 0.58)" stroke-width="2"></path><path d="M -338.9818568188824,476 C -242.98,407.8 -50.98,136.2 141.01814318111758,135 C 333.02,133.8 429.02,465.4 621.0181431811176,470 C 813.02,474.6 909.02,169 1101.0181431811175,158 C 1293.02,147 1513.22,414.4 1581.0181431811175,415 C 1648.81,415.6 1468.2,211.8 1440,161" stroke="rgba(138, 183, 231, 0.58)" stroke-width="2"></path><path d="M -108.72950365241627,167 C -12.73,194.4 179.27,325.4 371.27049634758373,304 C 563.27,282.6 659.27,40 851.2704963475837,60 C 1043.27,80 1139.27,387.2 1331.2704963475837,404 C 1523.27,420.8 1789.52,143.8 1811.2704963475837,144 C 1833.02,144.2 1514.25,352.8 1440,405" stroke="rgba(138, 183, 231, 0.58)" stroke-width="2"></path><path d="M -16.552315497481743,90 C 79.45,135.2 271.45,311.6 463.44768450251826,316 C 655.45,320.4 751.45,105 943.4476845025183,112 C 1135.45,119 1231.45,351.2 1423.4476845025183,351 C 1615.45,350.8 1900.14,89.2 1903.4476845025183,111 C 1906.76,132.8 1532.69,390.2 1440,460" stroke="rgba(138, 183, 231, 0.58)" stroke-width="2"></path><path d="M -78.9526610785702,220 C 17.05,254.4 209.05,398.8 401.0473389214298,392 C 593.05,385.2 689.05,187.2 881.0473389214299,186 C 1073.05,184.8 1169.05,373.4 1361.0473389214299,386 C 1553.05,398.6 1825.26,241.8 1841.0473389214299,249 C 1856.84,256.2 1520.21,387.4 1440,422" stroke="rgba(138, 183, 231, 0.58)" stroke-width="2"></path></g><defs><mask id="SvgjsMask1007"><rect width="1440" height="560" fill="#ffffff"></rect></mask></defs></svg>